<?xml version="1.0" encoding="utf-8"?>
<!-- Generator: Adobe Illustrator 27.5.0, SVG Export Plug-In . SVG Version: 6.00 Build 0)  -->
<svg version="1.1" xmlns="http://www.w3.org/2000/svg" xmlns:xlink="http://www.w3.org/1999/xlink" x="0px" y="0px"
	 viewBox="0 0 500 500" style="enable-background:new 0 0 500 500;" xml:space="preserve">
<g id="BACKGROUND">
	<rect id="XMLID_3_" style="fill:#FFFFFF;" width="500" height="500"/>
</g>
<g id="OBJECTS">
	<ellipse style="fill:#A1A1A1;" cx="268.383" cy="378.111" rx="70.095" ry="13.423"/>
	<ellipse style="fill:#A1A1A1;" cx="173.024" cy="364.385" rx="62.126" ry="21.09"/>
	<ellipse style="fill:#A1A1A1;" cx="338.478" cy="379.626" rx="60.472" ry="21.342"/>
	<g id="XMLID_4_">
		<path id="XMLID_10_" style="fill:#DD7B7D;" d="M283.484,223.001c-4.078,1.005-10.6-0.825-14.818-1.147
			c-9.859-0.752-19.76-1.374-29.65-0.837c-7.544,0.41-14.937,1.892-22.521,1.734c-3.85-0.08-9.628,0.293-13.22-1.144
			c-3.509-1.404-6.232-7.614-8.184-10.73c-8.31-13.269-15.654-27.133-23.191-40.847c-3.222-5.863-11.848-16.624-9.551-23.502
			c1.047-3.135,4.113-6.73,5.842-9.559l7.01-11.471c4.09-6.691,8.179-13.382,12.269-20.074c4.327-7.079,8.208-15.539,13.437-21.985
			c4.381-5.402,13.926-3.614,20.433-3.459c8.324,0.198,16.632,0.766,24.958,0.917c7.651,0.139,15.305,0.057,22.951-0.248
			c3.641-0.146,7.277-0.36,10.917-0.499c1.916-0.074,4.533-0.661,6.251,0.506c1.189,0.807,2.817,3.93,3.637,5.11
			c8.723,12.575,16.731,25.708,23.809,39.279c1.932,3.705,3.807,7.441,5.621,11.205c1.848,3.831,5.039,8.771,5.822,12.93
			c0.851,4.523-1.894,8.125-3.993,12.084c-2.06,3.884-4.141,7.756-6.242,11.617c-5.397,9.917-11.275,19.561-16.9,29.348
			c-2.423,4.216-4.897,8.38-7.512,12.392C288.788,217.492,287.216,222.081,283.484,223.001z"/>
		<path style="fill:#DFD1CF;" d="M178.051,143.188c1.744-3.289,3.507-6.569,5.287-9.839c4.571-8.399,9.549-16.567,14.313-24.856
			c2.052-3.571,4.147-7.098,6.362-10.496c1.585-2.432,2.916-6.319,6.077-7.098c3.454-0.851,8.978,0.699,12.55,0.971
			c8.35,0.637,16.735,1.163,25.112,0.708c6.389-0.347,12.651-1.602,19.074-1.468c3.26,0.068,8.154-0.248,11.196,0.969
			c2.972,1.189,5.278,6.448,6.931,9.088c7.038,11.238,13.258,22.98,19.642,34.595c2.729,4.966,10.035,14.079,8.089,19.905
			c-0.887,2.655-3.484,5.7-4.948,8.096l-5.938,9.715c-3.464,5.667-6.927,11.334-10.391,17.001c-3.664,5.996-6.952,13.16-11.38,18.62
			c-3.711,4.575-11.794,3.061-17.305,2.929c-7.05-0.168-14.087-0.648-21.139-0.777c-6.48-0.118-12.963-0.049-19.438,0.21
			c-3.083,0.123-6.163,0.305-9.246,0.423c-1.623,0.062-3.839,0.56-5.294-0.428c-1.007-0.684-2.386-3.328-3.08-4.328
			c-7.388-10.65-14.171-21.774-20.165-33.267c-1.637-3.138-3.224-6.302-4.761-9.49c-1.565-3.245-4.268-7.429-4.931-10.951
			C173.948,149.592,176.273,146.541,178.051,143.188z"/>
		<path style="fill:#5A5A5A;" d="M171.928,154.579c1.577,3.777,3.542,7.478,5.349,11.153c6.499,13.22,13.79,26.089,21.864,38.411
			c1.937,2.956,3.892,5.91,5.923,8.802c1.527,2.174,1.456,2.208,4.143,2.04c8.035-0.501,15.981-1.052,24.048-1.036
			c7.39,0.014,14.76,0.352,22.137,0.743c3.663,0.194,7.328,0.384,10.997,0.428c1.829,0.022,3.659,0.018,5.488-0.041
			c1.941-0.062,5.541,0.341,7.294-0.535c1.52-0.759,1.075-0.393,2.226-2.448c1.854-3.313,3.844-6.539,5.827-9.78
			c4.292-7.014,8.583-14.029,12.875-21.043c3.962-6.475,7.923-12.95,11.884-19.425c1.361-2.225,3.58-4.747,4.19-7.352
			c0.587-2.507-0.654-4.386-1.808-6.542c-7.217-13.486-14.566-26.97-22.286-40.176c-2.192-3.749-4.475-7.439-6.781-11.119
			c-1.387-2.214-2.742-5.656-5.138-7.031c-2.301-1.321-6.01-0.856-8.52-1.002c-4.419-0.257-8.762-0.327-13.173,0.104
			c-17.194,1.679-34.013,0.243-51.219-0.909c-2.092-0.136-4.765,5.124-5.546,6.617c-2.033,3.883-4.089,7.633-6.369,11.442
			c-5.099,8.517-9.709,17.313-14.493,26.007c-1.794,3.261-3.571,6.533-5.33,9.814c-1.311,2.446-3.449,5.246-4.156,7.936
			C170.843,151.574,171.18,152.788,171.928,154.579z M178.051,143.188c1.744-3.289,3.507-6.569,5.287-9.839
			c4.571-8.399,9.549-16.567,14.313-24.856c2.052-3.571,4.147-7.098,6.362-10.496c1.585-2.432,2.916-6.319,6.077-7.098
			c3.454-0.851,8.978,0.699,12.55,0.971c8.35,0.637,16.735,1.163,25.112,0.708c6.389-0.347,12.651-1.602,19.074-1.468
			c3.26,0.068,8.154-0.248,11.196,0.969c2.972,1.189,5.278,6.448,6.931,9.088c7.038,11.238,13.258,22.98,19.642,34.595
			c2.729,4.966,10.035,14.079,8.089,19.905c-0.887,2.655-3.484,5.7-4.948,8.096l-5.938,9.715
			c-3.464,5.667-6.927,11.334-10.391,17.001c-3.664,5.996-6.952,13.16-11.38,18.62c-3.711,4.575-11.794,3.061-17.305,2.929
			c-7.05-0.168-14.087-0.648-21.139-0.777c-6.48-0.118-12.963-0.049-19.438,0.21c-3.083,0.123-6.163,0.305-9.246,0.423
			c-1.623,0.062-3.839,0.56-5.294-0.428c-1.007-0.684-2.386-3.328-3.08-4.328c-7.388-10.65-14.171-21.774-20.165-33.267
			c-1.637-3.138-3.224-6.302-4.761-9.49c-1.565-3.245-4.268-7.429-4.931-10.951C173.948,149.592,176.273,146.541,178.051,143.188z"
			/>
		
			<text id="XMLID_11_" transform="matrix(1 0 0 1 193.6902 160.4153)" style="fill:#5A5A5A; font-family:'Barrio-Regular'; font-size:62.4476px;">404</text>
		
			<text id="XMLID_13_" transform="matrix(1 0 0 1 197.8953 184.8816)" style="fill:#5A5A5A; font-family:'Barrio-Regular'; font-size:28.1051px;">ERROR!</text>
		<path id="XMLID_14_" style="fill:#5A5A5A;" d="M336.369,143.496c-0.117-1.276-0.394-2.563-0.86-3.858
			c-4.089-11.365-10.814-21.701-16.263-32.441c-4.027-7.937-8.253-15.771-12.493-23.596c-2.119-3.911-4.319-7.789-6.348-11.747
			c-1.484-2.894-2.794-6.364-5.966-7.806c-2.252-1.023-4.762-0.462-7.122-0.256c-6.528,0.57-13.043,0.735-19.587,0.977
			c-9.155,0.294-18.311,0.592-27.468,0.846c-6.603,0.183-13.213-0.039-19.813,0.293c-4.93,0.248-9.499-0.225-13.38,3.423
			c-2.313,2.175-4.163,4.81-5.898,7.453c-0.206,0.295-0.399,0.598-0.59,0.903c-0.396,0.305-0.514,0.71-1.356,2.214
			c-2.19,3.911-4.539,7.721-6.88,11.547c-5.067,8.282-10.134,16.564-15.201,24.846c-4.677,7.645-9.355,15.29-14.032,22.935
			c-1.607,2.627-4.227,5.605-4.947,8.68c-0.693,2.96,0.772,5.178,2.134,7.724c8.521,15.924,17.198,31.844,26.313,47.436
			c2.588,4.427,5.284,8.783,8.007,13.128c1.638,2.614,3.238,6.678,6.066,8.302c2.717,1.56,7.096,1.01,10.059,1.182
			c5.217,0.303,10.345,0.386,15.553-0.122c1.406-0.137,2.814-0.251,4.223-0.349c1.227-0.085,3.025-0.529,4.217-0.248
			c3.216,0.757,2.09,4.45,2.076,6.617c-0.026,3.973,0.061,7.95,0.101,11.922c0.08,7.948,0.182,15.896,0.297,23.843
			c0.169,11.763,0.364,23.525,0.548,35.287c0.22,14.085,0.682,28.165,0.965,42.25c0.143,7.121,0.24,14.243,0.237,21.366
			c-0.004,7.797-0.969,17.832,10.101,16.745c5.707-0.56,8.628-5.571,8.174-10.8c-0.665-7.651-0.152-15.588-0.19-23.289
			c-0.078-15.916-0.254-31.831-0.528-47.745c-0.011-0.637-0.022-1.273-0.033-1.91c-0.229-12.939-0.513-25.878-0.901-38.813
			c-0.35-11.678,0.224-24.049-1.595-35.665c2.686,0.072,5.372,0.171,8.055,0.299c7.84,0.373,15.614,2.134,23.484,1.9
			c7.346-0.218,12.137-7.077,15.509-12.773c4.033-6.814,8.465-13.176,12.133-20.348c3.918-7.662,7.674-15.405,11.513-23.106
			C328.794,162.499,337.27,153.292,336.369,143.496z M211.157,71.415c4.288-2.92,9.292-2.454,14.211-2.588
			c7.257-0.197,14.513-0.394,21.77-0.591c13.925-0.378,27.858-0.627,41.78-0.995c-1.866,2.971-3.584,6-4.898,9.278
			c-9.336,0.584-18.575,1.214-27.952,1.195c-8.725-0.017-17.427-0.416-26.138-0.877c-4.325-0.229-8.652-0.453-12.984-0.506
			c-2.16-0.026-4.321-0.021-6.48,0.048c-1.118,0.036-2.704-0.058-4.274-0.044C207.753,74.549,209.395,72.615,211.157,71.415z
			 M252.012,377.122c-0.008,0.01-0.016,0.02-0.025,0.031c-1.145,1.413-2.647,2.296-4.486,2.251
			c-7.514-0.185-6.066-10.849-6.21-15.779c-0.199-6.775-0.312-13.553-0.388-20.331c-0.152-13.554-0.152-27.109-0.378-40.662
			c-0.169-10.181-0.33-20.362-0.506-30.543c-0.138-7.954-0.285-15.907-0.453-23.861c-0.084-3.977-0.173-7.953-0.269-11.93
			c-0.045-1.885-0.246-3.838-0.091-5.717c0.123-1.49-0.088-3.01,0.237-4.488c0.33-1.504,0.862-1.33,2.267-1.358
			c3.018-0.061,6.037-0.079,9.055-0.029c-1.027,12.089,0.472,24.797,0.801,36.872c0.352,12.937,0.677,25.874,0.922,38.813
			c0.292,15.403,0.48,30.808,0.577,46.213c0.048,7.623,0.075,15.247,0.076,22.87C253.14,372.256,253.871,374.797,252.012,377.122z
			 M283.416,223.001c-4.078,1.005-10.6-0.825-14.818-1.147c-9.859-0.752-19.76-1.374-29.65-0.837
			c-7.544,0.41-14.937,1.892-22.521,1.734c-3.85-0.08-9.628,0.293-13.219-1.144c-3.51-1.404-6.232-7.614-8.184-10.73
			c-8.31-13.269-15.653-27.133-23.191-40.847c-3.223-5.863-11.849-16.624-9.551-23.502c1.047-3.135,4.114-6.73,5.842-9.559
			l7.01-11.471c4.089-6.691,8.179-13.382,12.268-20.074c4.327-7.079,8.208-15.539,13.437-21.985
			c4.381-5.402,13.926-3.614,20.433-3.459c8.324,0.198,16.632,0.766,24.958,0.917c7.651,0.139,15.305,0.057,22.951-0.248
			c3.641-0.146,7.277-0.36,10.917-0.499c1.916-0.074,4.533-0.661,6.251,0.506c1.189,0.807,2.818,3.93,3.637,5.11
			c8.723,12.575,16.731,25.708,23.809,39.279c1.932,3.705,3.806,7.441,5.621,11.205c1.848,3.831,5.039,8.771,5.822,12.93
			c0.851,4.523-1.894,8.125-3.993,12.084c-2.059,3.884-4.141,7.756-6.242,11.617c-5.398,9.917-11.275,19.561-16.9,29.348
			c-2.423,4.216-4.896,8.38-7.512,12.392C288.72,217.492,287.148,222.081,283.416,223.001z M311.332,190.161
			c-4.256,8.363-8.593,16.906-14.287,24.356c-1.082,1.174-2.176,2.334-3.285,3.479c2.259-4.291,4.553-8.46,7.083-12.684
			c6.021-10.056,11.464-20.441,17.112-30.707c2.119-3.851,4.217-7.713,6.293-11.587c1.344-2.508,3.421-5.331,4.493-8.11
			c0.353-0.001,0.693-0.127,0.968-0.395C323.831,166.511,317.373,178.289,311.332,190.161z M331.828,140.682
			c-0.059,0.108-0.126,0.207-0.164,0.341c-0.732,2.588-1.969,4.841-2.991,7.282c-0.064-0.162-0.126-0.321-0.197-0.491
			c-1.863-4.46-4.183-8.829-6.316-13.169c-7.674-15.609-16.282-30.803-25.815-45.353c-2.287-3.49-4.595-6.978-6.993-10.393
			c-0.894-1.273-1.324-1.924-1.918-2.233c-0.217-0.113,1.592-3.587,1.736-3.875c1.109-2.218,2.326-4.01,3.987-5.82
			c0.785-0.855,3.329,5.137,3.554,5.496c0.987,1.57,1.958,3.15,2.916,4.739c1.918,3.182,3.778,6.399,5.59,9.642
			c3.634,6.504,7.073,13.115,10.397,19.783c2.826,5.67,5.569,11.382,8.276,17.11c1.334,2.824,2.66,5.651,3.983,8.48
			c0.66,1.411,1.319,2.823,1.979,4.234C330.11,137.006,332.068,140.25,331.828,140.682z"/>
		<path id="XMLID_23_" style="fill:#F1E9EA;" d="M211.157,71.415c4.288-2.92,9.292-2.454,14.211-2.588
			c7.257-0.197,14.513-0.394,21.77-0.591c13.925-0.378,27.858-0.627,41.78-0.995c-1.866,2.971-3.584,6-4.898,9.278
			c-9.336,0.584-18.575,1.214-27.952,1.195c-8.725-0.017-17.427-0.416-26.138-0.877c-4.325-0.229-8.652-0.453-12.984-0.506
			c-2.16-0.026-4.321-0.021-6.48,0.048c-1.118,0.036-2.704-0.058-4.274-0.044C207.753,74.549,209.395,72.615,211.157,71.415z"/>
		<path id="XMLID_26_" style="fill:#A1A1A1;" d="M311.332,190.161c-4.256,8.363-8.593,16.906-14.287,24.356
			c-1.082,1.174-2.176,2.334-3.285,3.479c2.259-4.291,4.553-8.46,7.083-12.684c6.021-10.056,11.464-20.441,17.112-30.707
			c2.119-3.851,4.217-7.713,6.293-11.587c1.344-2.508,3.421-5.331,4.493-8.11c0.353-0.001,0.693-0.127,0.968-0.395
			C323.831,166.511,317.373,178.289,311.332,190.161z"/>
		<path id="XMLID_29_" style="fill:#F1E9EA;" d="M331.828,140.682c-0.059,0.108-0.126,0.207-0.164,0.341
			c-0.732,2.588-1.969,4.841-2.991,7.282c-0.064-0.162-0.126-0.321-0.197-0.491c-1.863-4.46-4.183-8.829-6.316-13.169
			c-7.674-15.609-16.282-30.803-25.815-45.353c-2.287-3.49-4.595-6.978-6.993-10.393c-0.894-1.273-1.324-1.924-1.918-2.233
			c-0.217-0.113,1.592-3.587,1.736-3.875c1.109-2.218,2.326-4.01,3.987-5.82c0.785-0.855,3.329,5.137,3.554,5.496
			c0.987,1.57,1.958,3.15,2.916,4.739c1.918,3.182,3.778,6.399,5.59,9.642c3.634,6.504,7.073,13.115,10.397,19.783
			c2.826,5.67,5.569,11.382,8.276,17.11c1.334,2.824,2.66,5.651,3.983,8.48c0.66,1.411,1.319,2.823,1.979,4.234
			C330.11,137.006,332.068,140.25,331.828,140.682z"/>
		<path id="XMLID_32_" style="fill:#A1A1A1;" d="M253.14,369.476c-0.001-7.623-0.029-15.247-0.076-22.87
			c-0.096-15.406-0.285-30.81-0.577-46.213c-0.245-12.939-0.57-25.876-0.922-38.813c-0.165-6.072-0.626-12.303-0.913-18.536
			c-0.284-6.163-0.399-12.326,0.112-18.337c-3.018-0.05-6.037-0.032-9.055,0.029c-1.405,0.028-1.937-0.146-2.267,1.358
			c-0.325,1.478-0.114,2.999-0.237,4.488c-0.155,1.879,0.046,3.832,0.091,5.717c0.066,2.76,0.126,5.52,0.187,8.28
			c3.204,0.309,6.418,0.019,9.381-0.901c0.129,1.589,0.136,3.118,0.136,4.322c1.928,43.39,1.978,87.701,0.188,131.157
			c1.09-0.349,2.028-1.052,2.799-2.004c0.008-0.01,0.017-0.021,0.025-0.031C253.871,374.797,253.14,372.256,253.14,369.476z"/>
	</g>
	<path id="XMLID_35_" style="fill:#DFD1CF;" d="M249,248c0-1.204-0.007-2.732-0.136-4.322c-2.963,0.919-6.176,1.21-9.381,0.901
		c0.027,1.217,0.057,2.433,0.082,3.65c0.168,7.953,0.315,15.907,0.453,23.861c0.176,10.181,0.337,20.362,0.506,30.543
		c0.226,13.553,0.226,27.108,0.378,40.662c0.076,6.778,0.189,13.555,0.388,20.331c0.145,4.931-1.304,15.594,6.21,15.779
		c0.599,0.015,1.159-0.078,1.687-0.247C250.978,335.701,250.928,291.39,249,248z"/>
	<g id="XMLID_36_">
		<path style="fill:#5A5A5A;" d="M282.456,379.862c9.294-1.565,18.806-6.931,27.203-11.282l10.167,3.114
			c10.105,3.095,20.215,6.174,30.339,9.209c10.129,3.036,20.267,6.04,30.393,9.088c5.517,1.66,11.228,3.711,17.062,3.449
			c1.009-0.045,2.078-0.179,2.862-0.814c0.985-0.798,1.269-2.226,1.029-3.471c-0.308-1.595-1.305-3.145-2.15-4.507
			c-6.109-9.852-12.339-19.63-18.767-29.276c-6.442-9.666-13.083-19.201-19.999-28.533c-3.454-4.66-6.975-9.27-10.574-13.819
			c-0.351-0.443-0.707-0.878-1.063-1.312c-0.301-4.689-0.735-9.383-1.31-14.062c-0.457-5.577-0.082-13.208-2.257-18.4
			c-2.978-7.111-9.598-3.727-14.876-2.115c-7.902,2.412-15.739,5.038-23.498,7.876c-7.682,2.811-15.154,6.148-22.646,9.423
			c-5.107,2.233-11.872,5.915-12.008,12.056c-0.317,14.314-1.39,28.659-0.3,42.966c0.47,6.174,0.577,12.692,1.557,18.751
			C274.409,373.086,275.747,380.991,282.456,379.862z M397.173,387.793c0.117,0.308,0.161,0.658,0.104,0.98
			c-0.043,0.241-0.141,0.467-0.307,0.65c-0.444,0.49-1.192,0.52-1.853,0.501c-3.545-0.101-6.878-1.18-10.263-2.228
			c-3.656-1.131-7.179-2.636-10.815-3.822c-0.27-0.337-0.532-0.678-0.78-1.029c-0.076-0.135-0.157-0.267-0.25-0.391
			c-0.008-0.01-0.022-0.022-0.031-0.033c-0.171-0.254-0.345-0.507-0.506-0.769c-0.498-1.512-0.573-3.024-0.351-4.513
			c1.075-5.209,6.187-10.607,10.312-11.974c0.137-0.046,0.261-0.114,0.377-0.192C382.701,365.046,396.355,385.641,397.173,387.793z
			 M380.44,361.413c0.57,0.866-3.654,2.785-4.182,3.185c-2.676,2.029-4.667,5.52-6.173,8.443c-1.532,2.973-2.201,6.139-1.3,9.174
			c-0.969-0.305-1.939-0.609-2.908-0.914c-0.243-0.3-0.46-0.619-0.671-0.944c-0.01-0.072-0.009-0.143-0.028-0.217
			c-1.168-4.534-1.176-7.026,1.092-11.048c0.981-1.74,1.97-3.436,3.046-5.06c2.294-2.866,5.062-5.138,8.228-6.968
			C378.517,358.508,379.475,359.962,380.44,361.413z M364.008,337.515c1.37,1.929,2.733,3.862,4.091,5.8
			c2.165,3.091,4.188,6.287,6.576,9.197c0.199,0.314,0.406,0.62,0.593,0.944c0.173,0.299,0.338,0.613,0.503,0.929
			c-0.739,0.62-3.125,1.665-3.402,1.836c-1.073,0.662-2.048,1.767-2.953,2.638c-1.99,1.914-3.847,3.986-5.43,6.252
			c-2.899,4.15-5.162,9.445-3.436,14.515c-5.384-1.695-10.767-3.391-16.153-5.078c-1.57-0.492-3.144-0.969-4.716-1.456
			c-0.026-0.084-0.043-0.169-0.068-0.254c-0.091-2.006-0.437-4-0.319-6.075c0.228-4,1.259-7.785,2.928-11.424
			c3.564-7.771,9.556-14.387,16.218-19.664c0.129-0.013,0.254-0.048,0.354-0.119c0.852-0.605,1.701-1.007,2.667-1.339
			C362.288,335.356,363.263,336.466,364.008,337.515z M352.362,321.352c2.417,3.306,4.814,6.624,7.202,9.946
			c-0.199,0.08-0.393,0.169-0.584,0.27c-0.436,0.19-0.863,0.388-1.254,0.656c-13.131,6.516-25.867,24.242-22.555,39.476
			c-2.452-0.755-4.9-1.518-7.353-2.27c-0.83-2.027-1.681-4.043-2.47-6.094c-1.913-9.046,1.438-18.149,5.985-26.122
			c1.616-2.835,3.433-5.78,6.015-7.837c3.413-2.718,7.286-5.138,11.218-7.034C349.026,322.122,351.983,320.835,352.362,321.352z
			 M347.995,318.163c0.004,0.011,0.008,0.022,0.012,0.033c-0.182,0.081-0.314,0.196-0.388,0.34
			c-0.382,0.243-0.714,0.473-0.911,0.567c-2.627,1.248-5.052,2.945-7.435,4.588c-2.693,1.856-5.258,3.972-7.351,6.497
			c-1.021,1.231-1.92,2.589-2.744,3.958c-6.293,10.246-10.645,22.174-4.955,33.52c0.067,0.24,0.138,0.48,0.205,0.721
			c-2.719-0.832-5.437-1.664-8.155-2.498c-4.755-1.458-9.372-3.328-14.103-4.859c-2.382-0.771-4.794-1.467-7.248-1.969
			c-0.448-0.092-1.573-0.078-1.92-0.341c-0.184-0.14-0.333-0.364-0.456-0.629c-0.298-0.645-0.442-1.531-0.568-2.04
			c-0.814-3.28-0.22-7.135,0.097-10.465c0.893-9.376,4.817-18.224,10.3-25.806c4.128-5.708,9.015-10.983,14.333-15.6
			c4.925-4.275,10.209-6.826,16.072-9.259c4.366,5.846,8.712,11.692,13.039,17.546c0.059,0.515,0.367,0.86,0.772,1.044
			c0.953,1.292,1.913,2.58,2.864,3.873C348.973,317.646,348.512,317.945,347.995,318.163z M278.676,363.868
			c-1.223-8.728-2.497-17.374-2.803-26.28c-0.21-6.107-0.16-12.222,0.151-18.324c0.421-8.275-0.496-14.595,6.838-20.177
			c5.849-4.452,13.085-6.611,19.839-9.258c6.535-2.541,13.154-4.85,19.844-6.952c5.408-1.699,10.9-4.31,16.569-3.331
			c3.84,6.341,4.793,12.545,5.53,19.965c0.25,2.517,0.46,5.041,0.684,7.562c-0.091-0.13-0.189-0.254-0.279-0.386
			c-1.638-2.412-3.321-4.794-5.049-7.142c-1.142-1.553-2.304-3.092-3.485-4.616c-0.546-0.705-1.081-1.371-1.509-2.144
			c-0.315-0.568-0.305-0.693-1.008-0.799c-3.401-0.512-7.29,0.705-10.355,2.063c-3.522,1.561-6.735,3.768-9.692,6.221
			c-5.765,4.783-10.695,10.563-15.084,16.611c-5.441,7.499-9.544,16.144-11.024,25.338c-0.524,3.255-0.711,6.566-0.513,9.859
			c0.099,1.648,0.294,3.289,0.584,4.913c0.248,1.392,0.276,2.86,1.043,4.067c0.102,0.16,0.216,0.315,0.346,0.465
			c0.846,0.978,1.849,1.161,2.972,1.633c1.116,0.469,2.194,0.933,3.364,1.296c2.634,0.818,5.318,1.462,7.954,2.27l1.007,0.309
			c-2.39,1.317-4.822,2.544-7.336,3.676c-3.483,1.568-6.808,3.653-10.487,4.754c-4.614,1.381-6.535,0.279-7.106-4.232
			C279.356,368.763,279.018,366.312,278.676,363.868z"/>
		<path id="XMLID_39_" style="fill:#DFD1CF;" d="M382.81,364.973c-0.117,0.078-0.24,0.146-0.377,0.192
			c-4.126,1.366-9.237,6.764-10.312,11.974c-0.048,0.323-0.076,0.648-0.095,0.973c7.84,2.723,15.794,5.145,23.82,7.297
			C392.239,379.426,382.719,365.034,382.81,364.973z"/>
		<path id="XMLID_42_" style="fill:#A1A1A1;" d="M395.846,385.408c-8.026-2.152-15.981-4.573-23.82-7.297
			c-0.068,1.173,0.056,2.357,0.446,3.54c0.161,0.262,0.335,0.515,0.506,0.769c0.009,0.01,0.023,0.023,0.031,0.033
			c0.093,0.124,0.174,0.256,0.25,0.391c0.248,0.351,0.511,0.692,0.78,1.029c3.636,1.186,7.16,2.691,10.815,3.823
			c3.385,1.047,6.718,2.126,10.263,2.228c0.661,0.019,1.409-0.012,1.853-0.501c0.166-0.183,0.264-0.409,0.307-0.65
			c0.057-0.323,0.014-0.672-0.104-0.98C397.039,387.439,396.554,386.583,395.846,385.408z"/>
		<path id="XMLID_45_" style="fill:#DD7B7D;" d="M370.086,373.041c1.506-2.924,3.496-6.415,6.173-8.443
			c0.528-0.4,4.752-2.319,4.182-3.185c-0.965-1.451-1.923-2.905-2.896-4.349c-3.167,1.83-5.934,4.102-8.228,6.968
			c-1.075,1.624-2.065,3.32-3.046,5.06c-1.342,2.379-1.872,4.228-1.851,6.276c1.41,0.531,2.826,1.049,4.245,1.56
			C368.949,375.615,369.432,374.31,370.086,373.041z"/>
		<path id="XMLID_48_" style="fill:#B06264;" d="M368.664,376.928c-1.419-0.511-2.835-1.028-4.245-1.56
			c0.014,1.414,0.283,2.92,0.759,4.772c0.019,0.073,0.018,0.144,0.028,0.217c0.212,0.325,0.429,0.643,0.671,0.944
			c0.969,0.305,1.939,0.609,2.908,0.914C368.27,380.476,368.282,378.693,368.664,376.928z"/>
		<path id="XMLID_51_" style="fill:#DFD1CF;" d="M363.986,365.111c1.583-2.266,3.44-4.338,5.43-6.252
			c0.905-0.871,1.88-1.976,2.953-2.638c0.277-0.171,2.663-1.216,3.402-1.836c-0.166-0.315-0.33-0.629-0.504-0.929
			c-0.188-0.324-0.394-0.631-0.593-0.944c-2.388-2.91-4.41-6.106-6.576-9.197c-1.357-1.938-2.721-3.871-4.091-5.8
			c-0.745-1.049-1.72-2.159-2.548-3.299c-0.965,0.333-1.815,0.735-2.667,1.339c-0.1,0.071-0.226,0.106-0.354,0.12
			c-6.662,5.277-12.654,11.893-16.218,19.664c-1.365,2.977-2.295,6.054-2.716,9.264c6.744,3.317,13.634,6.353,20.643,9.116
			C360.675,370.63,362.208,367.654,363.986,365.111z"/>
		<path id="XMLID_54_" style="fill:#A1A1A1;" d="M360.148,373.719c-7.009-2.764-13.899-5.799-20.643-9.116
			c-0.094,0.714-0.171,1.432-0.212,2.16c-0.118,2.075,0.228,4.07,0.319,6.075c0.025,0.084,0.043,0.169,0.068,0.254
			c1.571,0.487,3.146,0.964,4.716,1.456c5.386,1.687,10.77,3.383,16.153,5.078C359.882,377.664,359.816,375.669,360.148,373.719z"/>
		<path id="XMLID_57_" style="fill:#DD7B7D;" d="M357.726,332.224c0.391-0.268,0.818-0.465,1.254-0.656
			c0.191-0.101,0.385-0.19,0.584-0.27c-2.389-3.323-4.785-6.641-7.202-9.946c-0.378-0.517-3.336,0.769-3.795,0.991
			c-3.931,1.896-7.805,4.316-11.218,7.034c-2.582,2.056-4.398,5.002-6.015,7.837c-3.446,6.043-6.2,12.737-6.501,19.561
			c3.344,1.932,6.735,3.782,10.167,5.556C337,349.798,347.232,337.431,357.726,332.224z"/>
		<path id="XMLID_60_" style="fill:#B06264;" d="M335,362.331c-3.432-1.773-6.823-3.623-10.167-5.556
			c-0.096,2.179,0.053,4.372,0.516,6.561c0.789,2.051,1.639,4.067,2.47,6.094c2.453,0.751,4.901,1.515,7.353,2.27
			C334.506,368.64,334.497,365.48,335,362.331z"/>
		<path id="XMLID_63_" style="fill:#DFD1CF;" d="M329.178,334.146c0.823-1.369,1.723-2.727,2.744-3.958
			c2.094-2.525,4.659-4.641,7.351-6.497c2.383-1.643,4.808-3.34,7.435-4.588c0.197-0.093,0.529-0.324,0.911-0.567
			c0.074-0.144,0.206-0.259,0.388-0.34c-0.004-0.011-0.008-0.022-0.012-0.033c0.516-0.218,0.978-0.517,1.459-0.778
			c-0.95-1.293-1.91-2.582-2.864-3.873c-0.405-0.184-0.713-0.529-0.772-1.044c-4.326-5.855-8.673-11.701-13.039-17.546
			c-5.863,2.433-11.147,4.983-16.072,9.259c-5.318,4.616-10.205,9.891-14.333,15.6c-3.473,4.804-6.318,10.116-8.166,15.748
			c8.662,7.2,17.842,13.621,27.42,19.359C322.042,347.684,325.225,340.583,329.178,334.146z"/>
		<path id="XMLID_66_" style="fill:#A1A1A1;" d="M321.629,354.887c-9.578-5.738-18.758-12.159-27.42-19.359
			c-1.069,3.258-1.807,6.622-2.134,10.058c-0.317,3.329-0.912,7.184-0.097,10.465c0.126,0.509,0.27,1.396,0.568,2.04
			c0.123,0.265,0.271,0.489,0.456,0.629c0.346,0.263,1.472,0.249,1.92,0.341c2.454,0.503,4.866,1.198,7.248,1.969
			c4.731,1.532,9.348,3.401,14.103,4.859c2.718,0.834,5.437,1.666,8.155,2.498c-0.067-0.24-0.138-0.48-0.205-0.721
			C322.108,363.448,321.384,359.15,321.629,354.887z"/>
		<path id="XMLID_69_" style="fill:#DD7B7D;" d="M344.643,299.51c-0.737-7.42-1.69-13.624-5.53-19.965
			c-5.669-0.979-11.16,1.632-16.569,3.331c-6.689,2.102-13.308,4.411-19.844,6.952c-6.754,2.647-13.99,4.806-19.839,9.258
			c-7.333,5.582-6.417,11.902-6.838,20.177c-0.311,6.102-0.361,12.218-0.151,18.324c0.113,3.281,0.358,6.526,0.683,9.754
			c3.433,1.557,7.096,2.224,10.718,1.377c0.038-2.176,0.221-4.35,0.567-6.499c1.48-9.194,5.583-17.839,11.024-25.338
			c4.389-6.049,9.319-11.829,15.084-16.611c2.957-2.453,6.17-4.66,9.692-6.221c3.065-1.358,6.954-2.576,10.355-2.064
			c0.704,0.106,0.693,0.231,1.008,0.799c0.428,0.772,0.963,1.439,1.509,2.144c1.181,1.524,2.343,3.063,3.485,4.616
			c1.728,2.349,3.411,4.73,5.049,7.142c0.09,0.132,0.188,0.256,0.279,0.386C345.103,304.551,344.893,302.027,344.643,299.51z"/>
		<path id="XMLID_72_" style="fill:#B06264;" d="M276.556,347.342c0.556,5.533,1.348,11.013,2.12,16.526
			c0.342,2.444,0.681,4.895,0.993,7.36c0.571,4.512,2.492,5.613,7.106,4.233c3.68-1.101,7.004-3.186,10.487-4.754
			c2.514-1.132,4.947-2.359,7.336-3.676l-1.008-0.309c-2.637-0.808-5.321-1.452-7.954-2.27c-1.169-0.363-2.247-0.827-3.364-1.296
			c-1.122-0.472-2.126-0.655-2.972-1.633c-0.13-0.15-0.244-0.305-0.346-0.465c-0.767-1.206-0.795-2.675-1.043-4.067
			c-0.29-1.625-0.485-3.266-0.584-4.913c-0.067-1.119-0.074-2.239-0.054-3.359C283.652,349.566,279.988,348.899,276.556,347.342z"/>
	</g>
	<g id="XMLID_73_">
		<path id="XMLID_74_" style="fill:#5A5A5A;" d="M214.843,359.553c-0.914-2.722-5.154-3.836-7.391-4.877
			c-8.716-4.055-17.917-7.216-27.204-9.701l-1.143-3.284l-3.495-10.042c-3.474-9.981-6.964-19.956-10.498-29.917
			c-3.536-9.966-7.102-19.92-10.627-29.889c-1.92-5.431-3.64-11.251-7.299-15.802c-0.633-0.787-1.372-1.571-2.348-1.828
			c-1.226-0.323-2.546,0.291-3.408,1.221c-1.105,1.191-1.766,2.911-2.366,4.398c-4.338,10.75-8.545,21.553-12.529,32.439
			c-3.992,10.908-7.759,21.9-11.202,32.995c-1.719,5.54-3.357,11.105-4.9,16.697c-0.151,0.545-0.291,1.089-0.431,1.633l-1.617,5.687
			c0.008-0.007,0.016-0.014,0.024-0.021c-0.051,0.151-0.093,0.303-0.146,0.453c-0.359,1.008-0.704,2.021-1.049,3.034
			c-7.279,2.811-14.235,6.214-20.8,10.482c-3.848,2.502-10.316,6.032-7.14,11.551c1.186,2.06,3.351,3.134,5.442,4.032
			c4.352,1.87,8.859,3.426,13.372,4.859c9.247,2.936,18.608,5.535,27.919,8.26c16.248,4.756,31.348,7.604,47.658,1.152
			c6.93-2.742,12.837-6.835,18.432-11.689c6.001-5.206,13.198-8.969,18.918-14.485C212.808,365.181,215.817,362.454,214.843,359.553
			z M142.893,259.737c0.179-0.277,0.436-0.518,0.73-0.663c0.22-0.108,0.461-0.162,0.706-0.136c0.658,0.069,1.124,0.654,1.499,1.199
			c2.013,2.92,3.112,6.247,4.267,9.596c1.247,3.618,2.115,7.35,3.307,10.984c-0.113,0.417-0.233,0.83-0.369,1.238
			c-0.064,0.141-0.122,0.284-0.168,0.432c-0.004,0.012-0.005,0.031-0.008,0.044c-0.104,0.288-0.205,0.578-0.322,0.863
			c-0.926,1.295-2.101,2.25-3.433,2.95c-4.838,2.211-12.213,1.277-15.753-1.245c-0.118-0.084-0.246-0.143-0.378-0.191
			C133.094,284.853,141.641,261.669,142.893,259.737z M131.499,288.823c0.362-0.972,4.406,1.302,5.04,1.492
			c3.218,0.96,7.211,0.503,10.459-0.009c3.304-0.521,6.253-1.852,8.169-4.372c0.327,0.962,0.654,1.924,0.981,2.886
			c-0.099,0.373-0.228,0.737-0.365,1.099c-0.053,0.051-0.111,0.092-0.159,0.151c-2.967,3.621-4.973,5.1-9.558,5.647
			c-1.984,0.237-3.936,0.44-5.882,0.533c-3.667-0.158-7.136-1.048-10.483-2.521C130.292,292.091,130.899,290.459,131.499,288.823z
			 M121.929,316.202c0.747-2.245,1.501-4.487,2.262-6.727c1.215-3.574,2.598-7.094,3.535-10.739
			c0.135-0.346,0.261-0.694,0.411-1.036c0.139-0.317,0.295-0.635,0.452-0.955c0.937,0.23,3.19,1.537,3.491,1.66
			c1.168,0.475,2.635,0.608,3.873,0.824c2.72,0.474,5.489,0.748,8.252,0.686c5.061-0.113,10.67-1.417,13.741-5.805
			c1.814,5.345,3.627,10.69,5.448,16.032c0.531,1.557,1.076,3.109,1.612,4.665c-0.053,0.07-0.111,0.135-0.164,0.205
			c-1.564,1.258-2.969,2.716-4.713,3.847c-3.361,2.18-7.024,3.584-10.946,4.388c-8.375,1.717-17.254,0.792-25.447-1.464
			c-0.087-0.096-0.189-0.177-0.306-0.215c-0.991-0.33-1.817-0.778-2.656-1.36C121.203,318.865,121.522,317.422,121.929,316.202z
			 M115.771,335.148c1.239-3.903,2.499-7.797,3.769-11.688c0.182,0.113,0.369,0.217,0.563,0.311c0.411,0.24,0.823,0.467,1.27,0.624
			c13.015,6.743,34.842,6.544,45.174-5.13c0.84,2.424,1.671,4.851,2.514,7.273c-1.145,1.868-2.269,3.745-3.457,5.593
			c-6.167,6.888-15.492,9.564-24.611,10.607c-3.242,0.371-6.692,0.646-9.876-0.222c-4.21-1.147-8.451-2.842-12.303-4.894
			C118.363,337.384,115.577,335.759,115.771,335.148z M112.47,345.676c0.38-0.352,0.477-0.804,0.386-1.24
			c0.479-1.532,0.951-3.068,1.433-4.599c0.494,0.234,1.008,0.43,1.49,0.717c0.006-0.01,0.013-0.02,0.02-0.029
			c0.173,0.099,0.344,0.138,0.503,0.112c0.422,0.165,0.804,0.297,0.996,0.4c2.559,1.381,5.361,2.335,8.095,3.287
			c3.089,1.075,6.311,1.895,9.585,2.091c1.596,0.096,3.223,0.02,4.815-0.125c11.984-0.978,24.179-4.514,29.97-15.809
			c0.154-0.196,0.306-0.396,0.46-0.591c0.935,2.685,1.87,5.37,2.804,8.055c1.633,4.698,2.853,9.527,4.413,14.249
			c0.785,2.378,1.649,4.734,2.694,7.011c0.191,0.415,0.867,1.315,0.859,1.75c-0.004,0.231-0.097,0.484-0.238,0.739
			c-0.344,0.621-0.975,1.261-1.311,1.664c-2.165,2.595-5.627,4.394-8.5,6.105c-8.092,4.82-17.549,6.882-26.905,6.939
			c-7.044,0.043-14.188-0.783-21.054-2.345c-6.359-1.447-11.539-4.203-16.966-7.495c1.269-4.145,2.554-8.275,3.833-12.409
			c0.007-0.003,0.013-0.006,0.02-0.009c0.602-0.264,0.667-0.923,0.429-1.443C111.025,350.362,111.741,348.014,112.47,345.676z
			 M207.231,365.576c-2.928,2.633-6.294,4.732-9.507,6.99c-6.198,4.354-11.421,9.942-17.983,13.782
			c-7.37,4.313-15.801,6.891-24.331,7.398c-8.419,0.5-16.254-1.397-24.273-3.73c-9.084-2.643-18.182-5.25-27.242-7.972
			c-3.959-1.19-7.896-2.44-11.794-3.816c-1.995-0.704-5.232-1.29-6.874-2.691c-5.745-4.901-0.986-6.762,2.048-8.861
			c5.979-4.138,12.339-7.737,18.915-10.844c-0.236,0.726-0.478,1.449-0.707,2.177c-0.578,1.839-1.133,3.686-1.664,5.539
			c-0.246,0.857-0.467,1.683-0.837,2.484c-0.272,0.59-0.379,0.655-0.049,1.286c1.596,3.046,4.877,5.465,7.783,7.135
			c3.34,1.919,7.02,3.207,10.745,4.143c7.265,1.825,14.841,2.387,22.314,2.353c9.265-0.041,18.664-1.84,26.956-6.078
			c2.936-1.501,5.717-3.307,8.257-5.411c1.271-1.053,2.479-2.18,3.619-3.374c0.976-1.023,2.144-1.913,2.664-3.244
			c0.069-0.176,0.126-0.36,0.171-0.553c0.289-1.26-0.156-2.178-0.438-3.363c-0.281-1.178-0.544-2.321-0.942-3.479
			c-0.707-2.056-1.504-4.079-2.26-6.117c7.86,2.049,15.456,4.675,22.937,7.973c1.177,0.519,5.167,1.611,5.593,2.579
			C211.223,361.908,208.448,364.481,207.231,365.576z"/>
		<path id="XMLID_84_" style="fill:#B06264;" d="M152.535,283.294c0.116-0.285,0.218-0.574,0.322-0.863
			c0.003-0.014,0.005-0.032,0.008-0.044c0.045-0.148,0.104-0.292,0.168-0.432c0.136-0.408,0.257-0.821,0.369-1.238
			c-1.192-3.634-2.06-7.366-3.307-10.984c-0.757-2.197-1.496-4.381-2.479-6.45c1.416,6.949,2.726,13.986,4.059,21.036
			C151.979,284.001,152.27,283.665,152.535,283.294z"/>
		<path id="XMLID_87_" style="fill:#DD7B7D;" d="M147.616,263.283c-0.516-1.086-1.095-2.141-1.788-3.146
			c-0.375-0.544-0.842-1.13-1.499-1.199c-0.245-0.026-0.486,0.028-0.706,0.136c-0.294,0.145-0.55,0.386-0.73,0.663
			c-1.252,1.932-9.8,25.116-9.923,25.072c0.132,0.048,0.26,0.107,0.378,0.191c3.54,2.521,10.916,3.455,15.753,1.245
			c0.951-0.5,1.816-1.136,2.573-1.926C150.342,277.269,149.032,270.232,147.616,263.283z"/>
		<path id="XMLID_90_" style="fill:#DFD1CF;" d="M152.448,288.382c-1.588,0.991-3.452,1.609-5.449,1.924
			c-3.248,0.512-7.241,0.969-10.459,0.009c-0.635-0.19-4.678-2.464-5.04-1.492c-0.6,1.636-1.208,3.268-1.797,4.906
			c3.347,1.474,6.816,2.363,10.483,2.521c1.946-0.092,3.898-0.296,5.882-0.533c3.294-0.393,5.256-1.283,7.201-3.087
			C152.992,291.215,152.719,289.799,152.448,288.382z"/>
		<path id="XMLID_93_" style="fill:#A1A1A1;" d="M155.625,290.07c0.048-0.058,0.106-0.1,0.159-0.151
			c0.137-0.363,0.266-0.726,0.365-1.099c-0.327-0.962-0.654-1.924-0.981-2.886c-0.758,0.996-1.681,1.8-2.72,2.448
			c0.271,1.417,0.544,2.833,0.82,4.248C154.03,291.923,154.79,291.09,155.625,290.07z"/>
		<path id="XMLID_96_" style="fill:#B06264;" d="M160.128,318.858c1.744-1.131,3.148-2.589,4.713-3.847
			c0.054-0.07,0.112-0.134,0.164-0.205c-0.536-1.555-1.081-3.108-1.612-4.665c-1.822-5.342-3.635-10.688-5.448-16.032
			c-1.002,1.432-2.278,2.531-3.714,3.372c1.489,7.383,3.104,14.723,4.992,21.932C159.526,319.232,159.83,319.052,160.128,318.858z"
			/>
		<path id="XMLID_99_" style="fill:#DD7B7D;" d="M154.231,297.481c-2.963,1.735-6.618,2.356-10.026,2.433
			c-2.763,0.062-5.532-0.212-8.252-0.686c-1.238-0.216-2.705-0.349-3.873-0.824c-0.302-0.123-2.555-1.43-3.491-1.66
			c-0.156,0.32-0.313,0.638-0.452,0.955c-0.15,0.343-0.276,0.691-0.411,1.036c-0.937,3.646-2.32,7.166-3.535,10.74
			c-0.761,2.24-1.515,4.482-2.262,6.727c-0.406,1.221-0.726,2.663-1.156,4.004c0.839,0.582,1.665,1.03,2.656,1.36
			c0.117,0.039,0.219,0.12,0.306,0.215c8.194,2.256,17.072,3.181,25.447,1.464c3.574-0.733,6.929-1.971,10.041-3.833
			C157.335,312.204,155.72,304.865,154.231,297.481z"/>
		<path id="XMLID_102_" style="fill:#A1A1A1;" d="M165.604,332.133c1.188-1.848,2.312-3.725,3.457-5.593
			c-0.843-2.423-1.674-4.85-2.514-7.273c-1.722,1.945-3.768,3.565-6.034,4.894c0.949,3.36,1.965,6.687,3.069,9.97
			C164.285,333.504,164.965,332.846,165.604,332.133z"/>
		<path id="XMLID_105_" style="fill:#DFD1CF;" d="M160.513,324.16c-11.333,6.646-28.294,5.855-39.14,0.236
			c-0.447-0.157-0.859-0.385-1.27-0.624c-0.194-0.094-0.381-0.199-0.563-0.311c-1.269,3.89-2.53,7.784-3.769,11.688
			c-0.194,0.611,2.592,2.237,3.042,2.476c3.853,2.051,8.094,3.746,12.303,4.894c3.184,0.868,6.634,0.593,9.876,0.222
			c8.174-0.935,16.506-3.193,22.589-8.609C162.478,330.847,161.462,327.52,160.513,324.16z"/>
		<path id="XMLID_108_" style="fill:#B06264;" d="M179.444,363.36c0.336-0.403,0.967-1.043,1.311-1.664
			c0.141-0.255,0.234-0.508,0.238-0.739c0.007-0.435-0.669-1.335-0.859-1.75c-1.045-2.277-1.909-4.634-2.694-7.011
			c-1.56-4.722-2.78-9.551-4.413-14.249c-0.934-2.685-1.869-5.37-2.804-8.055c-0.155,0.196-0.306,0.395-0.46,0.591
			c-1.369,2.671-3.107,4.895-5.105,6.767c3.46,9.716,7.738,19.013,13.243,27.655C178.458,364.419,178.985,363.911,179.444,363.36z"
			/>
		<path id="XMLID_111_" style="fill:#DD7B7D;" d="M164.657,337.25c-6.452,6.044-15.715,8.295-24.865,9.042
			c-1.591,0.145-3.218,0.221-4.815,0.125c-3.274-0.197-6.497-1.016-9.585-2.091c-2.733-0.952-5.535-1.906-8.095-3.287
			c-0.192-0.104-0.574-0.236-0.996-0.4c-0.159,0.025-0.331-0.014-0.503-0.112c-0.007,0.01-0.013,0.02-0.02,0.029
			c-0.481-0.287-0.995-0.483-1.49-0.717c-0.481,1.531-0.954,3.066-1.433,4.599c0.091,0.436-0.006,0.888-0.386,1.24
			c-0.729,2.338-1.445,4.686-2.17,7.026c0.238,0.519,0.174,1.178-0.429,1.443c-0.007,0.003-0.013,0.006-0.02,0.009
			c-1.279,4.135-2.563,8.264-3.833,12.409c5.427,3.292,10.607,6.049,16.966,7.495c6.866,1.562,14.01,2.388,21.054,2.345
			c9.357-0.057,18.813-2.119,26.905-6.939c2.263-1.348,4.883-2.757,6.955-4.56C172.395,356.263,168.117,346.965,164.657,337.25z"/>
		<path id="XMLID_114_" style="fill:#DFD1CF;" d="M154.665,380.035c-3.601,0.598-7.255,0.897-10.89,0.913
			c-7.473,0.033-15.049-0.528-22.314-2.353c-3.726-0.936-7.405-2.225-10.745-4.143c-2.907-1.67-6.187-4.089-7.783-7.135
			c-0.33-0.631-0.223-0.696,0.049-1.286c0.37-0.802,0.592-1.628,0.837-2.484c0.532-1.853,1.087-3.7,1.664-5.539
			c0.229-0.728,0.471-1.452,0.707-2.177c-6.577,3.107-12.936,6.706-18.915,10.844c-3.034,2.1-7.793,3.96-2.048,8.861
			c1.642,1.401,4.879,1.987,6.874,2.691c3.899,1.376,7.835,2.626,11.794,3.816c9.061,2.722,18.158,5.329,27.242,7.972
			c8.019,2.333,15.854,4.23,24.273,3.73c8.53-0.507,16.961-3.085,24.331-7.398c2.87-1.68,5.481-3.699,8.033-5.798
			C177.327,383.181,165.623,382.744,154.665,380.035z"/>
		<path id="XMLID_117_" style="fill:#A1A1A1;" d="M207.231,365.576c1.217-1.095,3.992-3.668,3.1-5.697
			c-0.426-0.969-4.416-2.06-5.593-2.579c-7.481-3.297-15.077-5.923-22.937-7.973c0.756,2.038,1.554,4.061,2.26,6.117
			c0.398,1.158,0.661,2.301,0.942,3.479c0.283,1.184,0.727,2.102,0.438,3.363c-0.044,0.193-0.102,0.377-0.171,0.553
			c-0.52,1.331-1.688,2.221-2.664,3.244c-1.139,1.194-2.348,2.321-3.619,3.374c-2.54,2.105-5.321,3.911-8.257,5.411
			c-5.038,2.576-10.488,4.239-16.065,5.165c10.958,2.709,22.662,3.147,33.108,0.514c3.281-2.699,6.464-5.534,9.95-7.984
			C200.937,370.308,204.302,368.209,207.231,365.576z"/>
	</g>
	<g id="XMLID_118_">
		<rect id="XMLID_119_" x="115.345" y="415.5" style="fill:#DD7B7D;" width="269.31" height="32"/>
		<g id="XMLID_122_">
			
				<text transform="matrix(1 0 0 1 129.9319 434.4375)" style="fill:#FFFFFF; font-family:'Aller-Bold'; font-size:10.6341px; letter-spacing:2;">please return to the previous page</text>
		</g>
	</g>
</g>
<g id="DESIGNED_BY_FREEPIK">
	<g id="XMLID_123_">
		<g id="XMLID_124_">
			<g id="XMLID_598_">
				<g id="XMLID_126_">
					<g id="XMLID_634_">
						<g id="XMLID_656_">
							<g id="XMLID_129_">
								<path id="XMLID_130_" style="fill:#A1A1A1;" d="M184.597,476.014c-0.246,0-0.434,0.085-0.567,0.255
									c-0.133,0.17-0.199,0.421-0.199,0.754v2.392c-0.305-0.331-0.617-0.578-0.938-0.739c-0.321-0.159-0.715-0.24-1.181-0.24
									c-0.807,0-1.458,0.283-1.953,0.848c-0.495,0.566-0.742,1.356-0.742,2.369c0,0.478,0.063,0.923,0.187,1.335
									c0.125,0.412,0.307,0.77,0.549,1.074c0.241,0.305,0.527,0.539,0.857,0.704c0.331,0.164,0.69,0.246,1.078,0.246
									c0.293,0,0.563-0.04,0.81-0.122c0.247-0.081,0.477-0.2,0.689-0.356c0.212-0.156,0.426-0.359,0.644-0.608v0.161
									c0,0.297,0.072,0.525,0.216,0.686c0.145,0.16,0.328,0.24,0.549,0.24c0.226,0,0.41-0.078,0.552-0.231
									c0.143-0.154,0.214-0.386,0.214-0.694v-7.147c0-0.305-0.066-0.535-0.199-0.691
									C185.031,476.092,184.843,476.014,184.597,476.014z M183.532,482.856c-0.14,0.306-0.328,0.534-0.564,0.682
									c-0.236,0.149-0.496,0.223-0.781,0.223c-0.281,0-0.54-0.079-0.778-0.236c-0.237-0.156-0.424-0.388-0.561-0.697
									c-0.136-0.309-0.205-0.682-0.205-1.122c0-0.416,0.064-0.781,0.193-1.096c0.128-0.315,0.309-0.556,0.543-0.724
									c0.234-0.168,0.499-0.252,0.796-0.252c0.285,0,0.547,0.082,0.786,0.245c0.24,0.165,0.429,0.402,0.57,0.712
									c0.141,0.311,0.21,0.682,0.21,1.114C183.742,482.165,183.673,482.549,183.532,482.856z"/>
							</g>
						</g>
						<g id="XMLID_653_">
							<g id="XMLID_131_">
								<path id="XMLID_132_" style="fill:#A1A1A1;" d="M191.964,481.936c0.233-0.122,0.35-0.385,0.35-0.793
									c0-0.438-0.113-0.87-0.338-1.294c-0.225-0.423-0.565-0.769-1.019-1.035c-0.453-0.268-0.996-0.4-1.629-0.4
									c-0.487,0-0.93,0.078-1.33,0.234c-0.4,0.157-0.736,0.381-1.01,0.674c-0.273,0.293-0.48,0.644-0.623,1.054
									c-0.143,0.409-0.213,0.853-0.213,1.332c0,1.017,0.289,1.823,0.866,2.416c0.578,0.593,1.387,0.891,2.428,0.891
									c0.455,0,0.858-0.059,1.208-0.178c0.351-0.119,0.641-0.268,0.873-0.448c0.231-0.18,0.404-0.368,0.52-0.564
									c0.114-0.197,0.172-0.367,0.172-0.513c0-0.167-0.052-0.294-0.155-0.386c-0.102-0.091-0.237-0.137-0.403-0.137
									c-0.155,0-0.274,0.036-0.357,0.107c-0.202,0.19-0.366,0.341-0.493,0.452c-0.127,0.111-0.265,0.215-0.415,0.312
									c-0.151,0.098-0.306,0.168-0.466,0.214c-0.161,0.045-0.337,0.067-0.531,0.067c-0.289,0-0.553-0.07-0.793-0.213
									c-0.239-0.142-0.432-0.354-0.576-0.635c-0.145-0.281-0.219-0.605-0.223-0.973h3.17
									C191.402,482.117,191.731,482.056,191.964,481.936z M187.808,481.197c0.056-0.546,0.213-0.959,0.472-1.238
									c0.259-0.279,0.59-0.418,0.994-0.418c0.424,0,0.764,0.137,1.024,0.412c0.259,0.275,0.409,0.69,0.448,1.244H187.808z"/>
							</g>
						</g>
						<g id="XMLID_652_">
							<path id="XMLID_133_" style="fill:#A1A1A1;" d="M197.392,481.499c-0.319-0.17-0.729-0.316-1.231-0.44
								c-0.424-0.103-0.756-0.19-0.997-0.261c-0.242-0.071-0.434-0.161-0.576-0.27c-0.142-0.109-0.213-0.248-0.213-0.419
								c0-0.186,0.097-0.341,0.291-0.465c0.194-0.126,0.437-0.187,0.73-0.187c0.285,0,0.511,0.047,0.677,0.142
								c0.167,0.095,0.31,0.222,0.433,0.38c0.15,0.19,0.284,0.332,0.401,0.427c0.117,0.096,0.258,0.143,0.424,0.143
								c0.23,0,0.407-0.061,0.532-0.178c0.124-0.119,0.186-0.272,0.186-0.457c0-0.171-0.058-0.345-0.175-0.523
								c-0.117-0.178-0.287-0.34-0.51-0.486c-0.223-0.146-0.503-0.264-0.837-0.35c-0.334-0.088-0.711-0.131-1.131-0.131
								c-0.534,0-0.99,0.086-1.367,0.259c-0.379,0.172-0.664,0.403-0.859,0.691c-0.194,0.289-0.291,0.596-0.291,0.92
								c0,0.364,0.105,0.671,0.315,0.921c0.21,0.249,0.49,0.45,0.84,0.602c0.35,0.152,0.804,0.298,1.362,0.436
								c0.495,0.119,0.85,0.244,1.066,0.375c0.216,0.131,0.324,0.337,0.324,0.623c0,0.186-0.104,0.351-0.311,0.496
								c-0.208,0.144-0.474,0.217-0.798,0.217c-0.4,0-0.716-0.071-0.947-0.214c-0.232-0.143-0.431-0.358-0.597-0.648
								c-0.082-0.15-0.17-0.267-0.261-0.35c-0.091-0.083-0.221-0.124-0.391-0.124c-0.194,0-0.355,0.063-0.481,0.19
								c-0.127,0.126-0.19,0.278-0.19,0.457c0,0.27,0.099,0.537,0.297,0.805c0.198,0.266,0.505,0.49,0.92,0.667
								c0.416,0.178,0.914,0.267,1.496,0.267c0.609,0,1.127-0.082,1.552-0.246c0.426-0.164,0.747-0.406,0.965-0.725
								c0.218-0.319,0.327-0.702,0.327-1.149c0-0.297-0.082-0.56-0.246-0.792C197.951,481.87,197.71,481.668,197.392,481.499z"/>
						</g>
						<g id="XMLID_650_">
							<path id="XMLID_134_" style="fill:#A1A1A1;" d="M200,478.424c-0.238,0-0.431,0.081-0.579,0.243
								c-0.149,0.162-0.222,0.404-0.222,0.724v4.636c0,0.317,0.074,0.56,0.222,0.73c0.148,0.17,0.341,0.255,0.579,0.255
								c0.238,0,0.433-0.083,0.588-0.249c0.155-0.166,0.232-0.412,0.232-0.737v-4.683c0-0.289-0.077-0.515-0.232-0.677
								C200.433,478.505,200.238,478.424,200,478.424z"/>
						</g>
						<g id="XMLID_649_">
							<path id="XMLID_135_" style="fill:#A1A1A1;" d="M200.018,476.085c-0.217,0-0.409,0.074-0.573,0.223
								c-0.164,0.149-0.246,0.337-0.246,0.567c0,0.254,0.08,0.45,0.24,0.588c0.16,0.139,0.353,0.208,0.579,0.208
								c0.218,0,0.406-0.071,0.564-0.211c0.158-0.14,0.238-0.335,0.238-0.585c0-0.258-0.081-0.453-0.244-0.588
								C200.414,476.152,200.228,476.085,200.018,476.085z"/>
						</g>
						<g id="XMLID_646_">
							<g id="XMLID_136_">
								<path id="XMLID_137_" style="fill:#A1A1A1;" d="M207.141,478.424c-0.218,0-0.396,0.078-0.535,0.231
									c-0.139,0.155-0.207,0.372-0.207,0.653v0.22c-0.289-0.376-0.602-0.652-0.938-0.829c-0.337-0.175-0.735-0.264-1.193-0.264
									c-0.384,0-0.736,0.068-1.057,0.204c-0.32,0.137-0.603,0.339-0.849,0.609c-0.245,0.269-0.434,0.599-0.567,0.992
									c-0.132,0.391-0.198,0.831-0.198,1.318c0,0.653,0.108,1.228,0.326,1.727c0.217,0.499,0.529,0.886,0.934,1.163
									c0.406,0.277,0.88,0.416,1.422,0.416c0.451,0,0.84-0.091,1.166-0.273c0.327-0.182,0.614-0.447,0.864-0.796
									c-0.008,0.531-0.02,0.915-0.035,1.155s-0.07,0.465-0.163,0.673c-0.093,0.21-0.255,0.374-0.487,0.49
									c-0.232,0.117-0.557,0.175-0.977,0.175c-0.205,0-0.388-0.02-0.546-0.056c-0.158-0.038-0.294-0.095-0.407-0.172
									c-0.112-0.077-0.216-0.17-0.309-0.28c-0.093-0.108-0.183-0.217-0.27-0.324c-0.178-0.209-0.386-0.314-0.624-0.314
									c-0.189,0-0.352,0.062-0.486,0.187c-0.135,0.124-0.202,0.286-0.202,0.483c0,0.261,0.119,0.516,0.357,0.763
									c0.238,0.247,0.576,0.449,1.015,0.605c0.439,0.156,0.938,0.234,1.496,0.234c0.61,0,1.119-0.061,1.529-0.184
									c0.409-0.122,0.741-0.311,0.994-0.563c0.254-0.253,0.438-0.574,0.552-0.961c0.115-0.388,0.173-0.851,0.173-1.39v-4.707
									c0-0.384-0.052-0.678-0.155-0.882C207.661,478.526,207.453,478.424,207.141,478.424z M206.114,482.79
									c-0.151,0.29-0.345,0.508-0.585,0.653c-0.239,0.144-0.493,0.217-0.762,0.217c-0.455,0-0.826-0.168-1.113-0.505
									c-0.287-0.336-0.43-0.833-0.43-1.49c0-0.649,0.139-1.15,0.418-1.501c0.279-0.352,0.649-0.529,1.113-0.529
									c0.475,0,0.858,0.184,1.149,0.552c0.291,0.367,0.436,0.883,0.436,1.543C206.339,482.146,206.264,482.499,206.114,482.79z"/>
							</g>
						</g>
						<g id="XMLID_645_">
							<path id="XMLID_138_" style="fill:#A1A1A1;" d="M214.495,479.492c-0.165-0.339-0.417-0.603-0.753-0.789
								c-0.337-0.186-0.718-0.28-1.146-0.28c-0.439,0-0.828,0.089-1.166,0.264c-0.339,0.176-0.65,0.452-0.935,0.828v-0.196
								c0-0.193-0.035-0.358-0.104-0.493c-0.069-0.134-0.162-0.234-0.276-0.302c-0.115-0.068-0.244-0.101-0.387-0.101
								c-0.233,0-0.417,0.076-0.552,0.228c-0.135,0.152-0.202,0.383-0.202,0.692v4.683c0,0.317,0.075,0.56,0.225,0.73
								c0.151,0.17,0.342,0.255,0.576,0.255c0.241,0,0.438-0.082,0.59-0.246c0.152-0.164,0.228-0.411,0.228-0.74v-2.03
								c0-0.661,0.04-1.111,0.119-1.353c0.111-0.3,0.285-0.537,0.522-0.71c0.237-0.172,0.501-0.258,0.789-0.258
								c0.444,0,0.739,0.142,0.888,0.425c0.148,0.283,0.223,0.692,0.223,1.226v2.701c0,0.317,0.075,0.56,0.226,0.73
								c0.15,0.17,0.346,0.255,0.588,0.255c0.237,0,0.43-0.083,0.578-0.249c0.149-0.166,0.223-0.412,0.223-0.737v-3.015
								c0-0.356-0.017-0.649-0.048-0.879C214.671,479.905,214.602,479.69,214.495,479.492z"/>
						</g>
						<g id="XMLID_642_">
							<g id="XMLID_139_">
								<path id="XMLID_140_" style="fill:#A1A1A1;" d="M221.339,481.936c0.234-0.122,0.35-0.385,0.35-0.793
									c0-0.438-0.113-0.87-0.338-1.294c-0.226-0.423-0.565-0.769-1.019-1.035c-0.453-0.268-0.996-0.4-1.629-0.4
									c-0.487,0-0.93,0.078-1.33,0.234c-0.4,0.157-0.736,0.381-1.009,0.674c-0.273,0.293-0.481,0.644-0.624,1.054
									c-0.142,0.409-0.214,0.853-0.214,1.332c0,1.017,0.289,1.823,0.866,2.416c0.578,0.593,1.388,0.891,2.428,0.891
									c0.455,0,0.858-0.059,1.208-0.178c0.35-0.119,0.641-0.268,0.872-0.448c0.232-0.18,0.405-0.368,0.52-0.564
									c0.115-0.197,0.172-0.367,0.172-0.513c0-0.167-0.051-0.294-0.154-0.386c-0.103-0.091-0.238-0.137-0.404-0.137
									c-0.154,0-0.273,0.036-0.356,0.107c-0.202,0.19-0.366,0.341-0.492,0.452c-0.128,0.111-0.266,0.215-0.416,0.312
									c-0.151,0.098-0.306,0.168-0.466,0.214c-0.161,0.045-0.338,0.067-0.532,0.067c-0.289,0-0.553-0.07-0.792-0.213
									c-0.24-0.142-0.432-0.354-0.576-0.635c-0.145-0.281-0.218-0.605-0.223-0.973h3.169
									C220.777,482.117,221.106,482.056,221.339,481.936z M217.184,481.197c0.055-0.546,0.212-0.959,0.471-1.238
									c0.259-0.279,0.591-0.418,0.995-0.418c0.423,0,0.765,0.137,1.024,0.412c0.259,0.275,0.409,0.69,0.448,1.244H217.184z"/>
							</g>
						</g>
						<g id="XMLID_639_">
							<g id="XMLID_141_">
								<path id="XMLID_142_" style="fill:#A1A1A1;" d="M227.726,476.014c-0.245,0-0.435,0.085-0.567,0.255
									c-0.133,0.17-0.199,0.421-0.199,0.754v2.392c-0.304-0.331-0.617-0.578-0.938-0.739c-0.32-0.159-0.714-0.24-1.181-0.24
									c-0.807,0-1.458,0.283-1.953,0.848c-0.495,0.566-0.742,1.356-0.742,2.369c0,0.478,0.062,0.923,0.187,1.335
									c0.125,0.412,0.307,0.77,0.549,1.074c0.242,0.305,0.527,0.539,0.858,0.704c0.33,0.164,0.689,0.246,1.077,0.246
									c0.293,0,0.563-0.04,0.81-0.122c0.247-0.081,0.477-0.2,0.688-0.356c0.212-0.156,0.426-0.359,0.644-0.608v0.161
									c0,0.297,0.072,0.525,0.217,0.686c0.145,0.16,0.328,0.24,0.549,0.24c0.226,0,0.41-0.078,0.552-0.231
									c0.143-0.154,0.214-0.386,0.214-0.694v-7.147c0-0.305-0.066-0.535-0.199-0.691
									C228.16,476.092,227.971,476.014,227.726,476.014z M226.66,482.856c-0.14,0.306-0.328,0.534-0.564,0.682
									c-0.235,0.149-0.495,0.223-0.781,0.223c-0.281,0-0.54-0.079-0.777-0.236c-0.238-0.156-0.425-0.388-0.562-0.697
									c-0.137-0.309-0.204-0.682-0.204-1.122c0-0.416,0.064-0.781,0.193-1.096c0.129-0.315,0.31-0.556,0.543-0.724
									c0.233-0.168,0.499-0.252,0.795-0.252c0.285,0,0.547,0.082,0.787,0.245c0.24,0.165,0.43,0.402,0.57,0.712
									c0.141,0.311,0.211,0.682,0.211,1.114C226.87,482.165,226.8,482.549,226.66,482.856z"/>
							</g>
						</g>
						<g id="XMLID_636_">
							<g id="XMLID_143_">
								<path id="XMLID_144_" style="fill:#A1A1A1;" d="M237.107,478.818c-0.406-0.255-0.878-0.382-1.416-0.382
									c-0.467,0-0.859,0.084-1.176,0.252c-0.317,0.168-0.627,0.411-0.932,0.727v-2.475c0-0.297-0.067-0.525-0.202-0.686
									c-0.135-0.16-0.326-0.24-0.576-0.24c-0.237,0-0.423,0.084-0.555,0.252c-0.132,0.168-0.198,0.416-0.198,0.745v7.077
									c0,0.305,0.068,0.535,0.205,0.692c0.136,0.156,0.32,0.234,0.549,0.234c0.226,0,0.412-0.078,0.558-0.234
									c0.146-0.157,0.22-0.388,0.22-0.692v-0.161c0.178,0.206,0.322,0.361,0.431,0.463c0.109,0.103,0.241,0.203,0.395,0.3
									c0.154,0.098,0.341,0.175,0.561,0.234c0.219,0.06,0.454,0.089,0.703,0.089c0.407,0,0.78-0.082,1.119-0.246
									c0.338-0.164,0.626-0.397,0.864-0.698c0.237-0.3,0.418-0.656,0.543-1.065c0.125-0.41,0.187-0.859,0.187-1.35
									c0-0.665-0.112-1.241-0.336-1.725C237.826,479.444,237.512,479.075,237.107,478.818z M236.317,483.23
									c-0.294,0.355-0.646,0.532-1.053,0.532c-0.479,0-0.866-0.174-1.161-0.521c-0.295-0.346-0.442-0.841-0.442-1.486
									c0-0.44,0.069-0.819,0.208-1.137c0.139-0.319,0.329-0.562,0.57-0.73c0.241-0.168,0.517-0.252,0.825-0.252
									c0.301,0,0.564,0.084,0.79,0.252c0.225,0.168,0.399,0.406,0.522,0.715c0.123,0.308,0.184,0.677,0.184,1.104
									C236.759,482.368,236.611,482.875,236.317,483.23z"/>
							</g>
						</g>
						<g id="XMLID_635_">
							<path id="XMLID_145_" style="fill:#A1A1A1;" d="M244.052,478.522c-0.113-0.066-0.23-0.098-0.353-0.098
								c-0.17,0-0.302,0.03-0.395,0.09c-0.093,0.059-0.181,0.173-0.264,0.344c-0.083,0.17-0.176,0.407-0.279,0.706l-1.3,3.71
								l-1.371-3.989c-0.091-0.277-0.195-0.489-0.314-0.638c-0.119-0.148-0.296-0.223-0.529-0.223c-0.135,0-0.264,0.035-0.389,0.107
								c-0.124,0.071-0.222,0.166-0.294,0.285c-0.071,0.118-0.107,0.247-0.107,0.385c0,0.131,0.062,0.341,0.184,0.629l1.995,5.022
								l-0.148,0.363c-0.111,0.265-0.209,0.466-0.294,0.602c-0.085,0.137-0.181,0.233-0.288,0.288
								c-0.107,0.056-0.254,0.084-0.44,0.084c-0.075,0-0.164-0.012-0.267-0.035c-0.083-0.024-0.168-0.037-0.256-0.037
								c-0.221,0-0.388,0.051-0.501,0.152c-0.114,0.101-0.169,0.245-0.169,0.43c0,0.273,0.118,0.461,0.356,0.565
								c0.237,0.103,0.593,0.154,1.068,0.154c0.487,0,0.873-0.074,1.161-0.223c0.287-0.148,0.517-0.361,0.691-0.638
								c0.174-0.277,0.352-0.659,0.535-1.145l2.113-5.533c0.051-0.142,0.094-0.283,0.13-0.421c0.036-0.139,0.061-0.246,0.077-0.321
								c0-0.123-0.031-0.239-0.092-0.35C244.251,478.675,244.164,478.587,244.052,478.522z"/>
						</g>
					</g>
					<g id="XMLID_613_">
						<g id="XMLID_633_">
							<path id="XMLID_146_" style="fill:#A1A1A1;" d="M266.456,476.01c-0.534,0-0.954,0.068-1.26,0.204
								c-0.307,0.137-0.527,0.354-0.654,0.653c-0.129,0.3-0.192,0.702-0.192,1.211v0.487h-0.386c-0.543,0-0.815,0.192-0.815,0.582
								c0,0.174,0.066,0.317,0.196,0.424c0.132,0.111,0.316,0.164,0.559,0.164h0.446v4.294c0,0.319,0.075,0.563,0.228,0.73
								c0.154,0.17,0.344,0.254,0.574,0.254c0.243,0,0.438-0.084,0.589-0.254c0.156-0.167,0.231-0.411,0.231-0.73v-4.294h0.395
								c0.291,0,0.517-0.035,0.681-0.107c0.166-0.071,0.245-0.241,0.245-0.503c0-0.374-0.306-0.56-0.926-0.56h-0.395v-0.386
								c0-0.322,0.043-0.568,0.122-0.74c0.087-0.172,0.273-0.259,0.566-0.259c0.107,0,0.241,0.014,0.389,0.035
								c0.156,0.026,0.267,0.037,0.33,0.037c0.134,0,0.252-0.054,0.348-0.16c0.101-0.107,0.15-0.236,0.15-0.385
								C267.877,476.239,267.406,476.01,266.456,476.01z"/>
						</g>
						<g id="XMLID_632_">
							<path id="XMLID_147_" style="fill:#A1A1A1;" d="M271.617,478.676c-0.32-0.171-0.648-0.255-0.991-0.255
								c-0.342,0-0.611,0.084-0.819,0.255c-0.203,0.171-0.4,0.421-0.593,0.755c-0.014-0.334-0.08-0.584-0.198-0.755
								c-0.119-0.171-0.313-0.255-0.583-0.255c-0.526,0-0.788,0.364-0.788,1.093v4.514c0,0.323,0.077,0.569,0.225,0.734
								c0.15,0.168,0.341,0.25,0.579,0.25c0.237,0,0.432-0.08,0.586-0.247c0.151-0.163,0.234-0.41,0.234-0.737v-1.355
								c0-0.487,0.014-0.9,0.045-1.238c0.034-0.337,0.09-0.631,0.17-0.878c0.083-0.243,0.201-0.426,0.353-0.554
								c0.15-0.122,0.345-0.186,0.582-0.186c0.172,0,0.374,0.037,0.602,0.108c0.226,0.073,0.371,0.112,0.433,0.112
								c0.158,0,0.304-0.064,0.441-0.195c0.135-0.126,0.204-0.292,0.204-0.488C272.099,479.074,271.939,478.847,271.617,478.676z"/>
						</g>
						<g id="XMLID_629_">
							<g id="XMLID_148_">
								<path id="XMLID_149_" style="fill:#A1A1A1;" d="M277.704,481.934c0.233-0.122,0.351-0.386,0.351-0.791
									c0-0.441-0.113-0.871-0.339-1.296c-0.222-0.424-0.566-0.77-1.018-1.034c-0.453-0.27-0.997-0.403-1.629-0.403
									c-0.488,0-0.931,0.078-1.33,0.234c-0.402,0.156-0.736,0.38-1.008,0.674c-0.276,0.295-0.484,0.643-0.624,1.055
									c-0.144,0.41-0.217,0.855-0.217,1.334c0,1.016,0.292,1.823,0.87,2.418c0.577,0.593,1.385,0.889,2.429,0.889
									c0.454,0,0.858-0.06,1.207-0.179c0.349-0.117,0.64-0.268,0.874-0.446c0.233-0.181,0.405-0.368,0.522-0.566
									c0.112-0.195,0.167-0.365,0.167-0.512c0-0.167-0.048-0.294-0.152-0.386c-0.105-0.092-0.238-0.138-0.406-0.138
									c-0.153,0-0.271,0.038-0.355,0.109c-0.202,0.189-0.367,0.34-0.494,0.449c-0.128,0.113-0.264,0.217-0.415,0.313
									c-0.15,0.097-0.307,0.17-0.466,0.213c-0.16,0.049-0.337,0.069-0.531,0.069c-0.29,0-0.552-0.07-0.793-0.212
									c-0.241-0.144-0.431-0.357-0.578-0.635c-0.144-0.28-0.216-0.607-0.221-0.974h3.171
									C277.143,482.115,277.471,482.055,277.704,481.934z M273.549,481.194c0.054-0.546,0.213-0.957,0.472-1.236
									c0.259-0.281,0.591-0.418,0.995-0.418c0.426,0,0.764,0.136,1.025,0.413c0.26,0.273,0.407,0.688,0.446,1.241H273.549z"/>
							</g>
						</g>
						<g id="XMLID_626_">
							<g id="XMLID_150_">
								<path id="XMLID_151_" style="fill:#A1A1A1;" d="M283.444,478.813c-0.46-0.27-1.003-0.403-1.633-0.403
									c-0.487,0-0.932,0.078-1.331,0.234c-0.401,0.156-0.737,0.38-1.009,0.674c-0.273,0.295-0.481,0.643-0.622,1.055
									c-0.145,0.41-0.217,0.855-0.217,1.334c0,1.016,0.291,1.823,0.868,2.418c0.58,0.593,1.387,0.889,2.429,0.889
									c0.454,0,0.861-0.06,1.209-0.179c0.347-0.117,0.641-0.268,0.872-0.446c0.234-0.181,0.408-0.368,0.519-0.566
									c0.117-0.195,0.171-0.365,0.171-0.512c0-0.167-0.047-0.294-0.15-0.386c-0.104-0.092-0.239-0.138-0.406-0.138
									c-0.151,0-0.271,0.038-0.355,0.109c-0.203,0.189-0.368,0.34-0.493,0.449c-0.128,0.113-0.264,0.217-0.415,0.313
									c-0.153,0.097-0.307,0.17-0.469,0.213c-0.158,0.049-0.336,0.069-0.528,0.069c-0.291,0-0.555-0.07-0.795-0.212
									c-0.239-0.144-0.431-0.357-0.576-0.635c-0.143-0.28-0.218-0.607-0.222-0.974h3.171c0.422,0,0.75-0.06,0.984-0.181
									c0.231-0.122,0.351-0.386,0.351-0.791c0-0.441-0.116-0.871-0.341-1.296C284.235,479.423,283.893,479.077,283.444,478.813z
									 M280.291,481.194c0.053-0.546,0.211-0.957,0.469-1.236c0.261-0.281,0.592-0.418,0.996-0.418
									c0.426,0,0.764,0.136,1.027,0.413c0.257,0.273,0.407,0.688,0.447,1.241H280.291z"/>
							</g>
						</g>
						<g id="XMLID_623_">
							<g id="XMLID_152_">
								<path id="XMLID_153_" style="fill:#A1A1A1;" d="M290.458,478.818c-0.42-0.256-0.883-0.386-1.38-0.386
									c-0.415,0-0.79,0.089-1.114,0.267c-0.331,0.176-0.649,0.452-0.953,0.828v-0.194c0-0.297-0.071-0.519-0.218-0.678
									c-0.143-0.156-0.329-0.234-0.56-0.234c-0.233,0-0.419,0.078-0.553,0.228c-0.134,0.155-0.2,0.383-0.2,0.692v6.996
									c0,0.355,0.051,0.62,0.146,0.807c0.102,0.183,0.301,0.275,0.607,0.275c0.518,0,0.778-0.359,0.778-1.069v-2.433
									c0.287,0.358,0.587,0.633,0.901,0.816c0.313,0.187,0.704,0.279,1.166,0.279c0.385,0,0.741-0.076,1.08-0.227
									c0.334-0.153,0.622-0.372,0.868-0.654c0.245-0.283,0.441-0.632,0.58-1.05c0.14-0.419,0.21-0.878,0.21-1.376
									c0-0.677-0.123-1.261-0.366-1.758C291.207,479.453,290.877,479.077,290.458,478.818z M289.982,482.822
									c-0.137,0.313-0.32,0.546-0.552,0.704c-0.229,0.154-0.48,0.233-0.748,0.233c-0.454,0-0.828-0.178-1.133-0.537
									c-0.307-0.358-0.46-0.862-0.46-1.504c0-0.686,0.154-1.204,0.462-1.558c0.306-0.35,0.684-0.527,1.13-0.527
									c0.281,0,0.541,0.084,0.77,0.248c0.229,0.163,0.411,0.397,0.541,0.705c0.13,0.306,0.197,0.674,0.197,1.102
									C290.189,482.13,290.12,482.508,289.982,482.822z"/>
							</g>
						</g>
						<g id="XMLID_622_">
							<path id="XMLID_154_" style="fill:#A1A1A1;" d="M293.432,478.421c-0.238,0-0.428,0.079-0.58,0.245
								c-0.146,0.162-0.222,0.403-0.222,0.721v4.642c0,0.313,0.076,0.556,0.222,0.729c0.152,0.17,0.342,0.254,0.58,0.254
								c0.238,0,0.432-0.082,0.588-0.25c0.154-0.165,0.231-0.41,0.231-0.732v-4.689c0-0.286-0.077-0.513-0.231-0.675
								C293.864,478.5,293.67,478.421,293.432,478.421z"/>
						</g>
						<g id="XMLID_621_">
							<path id="XMLID_155_" style="fill:#A1A1A1;" d="M293.449,476.081c-0.217,0-0.408,0.076-0.571,0.222
								c-0.166,0.15-0.248,0.339-0.248,0.569c0,0.253,0.08,0.446,0.242,0.585c0.159,0.138,0.35,0.209,0.577,0.209
								c0.22,0,0.408-0.071,0.566-0.21c0.157-0.14,0.236-0.335,0.236-0.585c0-0.258-0.082-0.455-0.244-0.591
								C293.846,476.147,293.661,476.081,293.449,476.081z"/>
						</g>
						<g id="XMLID_620_">
							<path id="XMLID_156_" style="fill:#A1A1A1;" d="M300.791,483.451l-1.662-2.614l0.861-0.789
								c0.438-0.396,0.659-0.714,0.659-0.951c0-0.192-0.068-0.355-0.2-0.483c-0.139-0.128-0.306-0.193-0.51-0.193
								c-0.169,0-0.313,0.043-0.431,0.13c-0.121,0.086-0.29,0.251-0.517,0.487l-1.823,1.914v-3.933c0-0.33-0.074-0.582-0.221-0.751
								c-0.148-0.172-0.344-0.257-0.593-0.257c-0.255,0-0.456,0.092-0.596,0.283c-0.135,0.189-0.207,0.463-0.207,0.821v6.915
								c0,0.323,0.073,0.569,0.215,0.734c0.141,0.168,0.339,0.25,0.588,0.25c0.213,0,0.406-0.084,0.566-0.254
								c0.165-0.167,0.248-0.406,0.248-0.718v-1.291l0.88-0.83l1.428,2.354c0.181,0.278,0.33,0.472,0.436,0.58
								c0.106,0.109,0.261,0.16,0.458,0.16c0.226,0,0.413-0.073,0.554-0.221c0.141-0.151,0.213-0.352,0.213-0.61
								c0-0.089-0.029-0.189-0.081-0.289C301.003,483.791,300.912,483.647,300.791,483.451z"/>
						</g>
						<g id="XMLID_619_">
							<path id="XMLID_157_" style="fill:#A1A1A1;" d="M302.983,483.225c-0.25,0-0.458,0.087-0.63,0.262
								c-0.17,0.173-0.256,0.381-0.256,0.622c0,0.287,0.09,0.51,0.268,0.665c0.179,0.159,0.389,0.238,0.634,0.238
								c0.237,0,0.444-0.079,0.624-0.241c0.174-0.158,0.264-0.38,0.264-0.662c0-0.243-0.089-0.454-0.264-0.626
								C303.443,483.312,303.232,483.225,302.983,483.225z"/>
						</g>
						<g id="XMLID_618_">
							<path id="XMLID_158_" style="fill:#A1A1A1;" d="M310.37,482.298c-0.167,0-0.308,0.054-0.422,0.156
								c-0.113,0.104-0.219,0.245-0.318,0.427c-0.178,0.31-0.382,0.538-0.617,0.689c-0.231,0.15-0.51,0.225-0.835,0.225
								c-0.239,0-0.462-0.045-0.665-0.141c-0.201-0.093-0.372-0.229-0.516-0.409c-0.144-0.18-0.252-0.398-0.325-0.653
								c-0.075-0.255-0.114-0.537-0.114-0.842c0-0.646,0.147-1.161,0.44-1.534c0.293-0.375,0.682-0.561,1.158-0.561
								c0.333,0,0.607,0.074,0.821,0.226c0.219,0.148,0.424,0.375,0.622,0.674c0.109,0.158,0.209,0.269,0.299,0.339
								c0.09,0.068,0.201,0.104,0.338,0.104c0.202,0,0.377-0.068,0.524-0.203c0.144-0.135,0.214-0.3,0.214-0.492
								c0-0.192-0.063-0.397-0.192-0.617c-0.128-0.218-0.314-0.424-0.556-0.62c-0.245-0.192-0.54-0.352-0.891-0.474
								c-0.353-0.123-0.737-0.184-1.158-0.184c-0.674,0-1.259,0.138-1.746,0.419c-0.486,0.279-0.859,0.674-1.113,1.184
								c-0.259,0.511-0.387,1.098-0.387,1.765c0,0.981,0.281,1.765,0.841,2.35c0.562,0.582,1.345,0.876,2.349,0.876
								c0.469,0,0.894-0.065,1.269-0.192c0.377-0.126,0.688-0.295,0.934-0.502c0.248-0.208,0.434-0.425,0.554-0.656
								c0.121-0.229,0.182-0.446,0.182-0.646c0-0.169-0.066-0.331-0.198-0.481C310.733,482.375,310.568,482.298,310.37,482.298z"/>
						</g>
						<g id="XMLID_615_">
							<g id="XMLID_159_">
								<path id="XMLID_160_" style="fill:#A1A1A1;" d="M317.183,479.334c-0.288-0.29-0.629-0.517-1.027-0.674
									c-0.4-0.16-0.847-0.239-1.337-0.239c-0.482,0-0.923,0.078-1.326,0.234c-0.398,0.158-0.737,0.38-1.019,0.669
									c-0.281,0.288-0.498,0.637-0.649,1.046c-0.147,0.408-0.224,0.857-0.224,1.349c0,0.485,0.076,0.93,0.219,1.332
									c0.152,0.402,0.369,0.75,0.657,1.048c0.284,0.292,0.627,0.521,1.016,0.676c0.392,0.159,0.835,0.239,1.326,0.239
									c0.493,0,0.937-0.08,1.337-0.234c0.394-0.157,0.735-0.382,1.02-0.675c0.286-0.291,0.502-0.642,0.656-1.049
									c0.146-0.409,0.222-0.856,0.222-1.337c0-0.489-0.075-0.932-0.221-1.339C317.685,479.977,317.469,479.631,317.183,479.334z
									 M315.991,483.251c-0.289,0.372-0.681,0.557-1.171,0.557c-0.323,0-0.604-0.086-0.845-0.253
									c-0.24-0.168-0.423-0.41-0.553-0.729c-0.129-0.316-0.193-0.684-0.193-1.108c0-0.428,0.066-0.803,0.197-1.124
									c0.13-0.322,0.314-0.564,0.556-0.728c0.242-0.164,0.522-0.246,0.839-0.246c0.49,0,0.882,0.182,1.171,0.555
									c0.29,0.367,0.436,0.881,0.436,1.543C316.427,482.369,316.28,482.881,315.991,483.251z"/>
							</g>
						</g>
						<g id="XMLID_614_">
							<path id="XMLID_161_" style="fill:#A1A1A1;" d="M327.107,478.694c-0.32-0.173-0.705-0.262-1.146-0.262
								c-0.381,0-0.726,0.081-1.039,0.241c-0.313,0.161-0.607,0.408-0.881,0.738c-0.192-0.326-0.431-0.572-0.725-0.735
								c-0.292-0.162-0.642-0.244-1.049-0.244c-0.394,0-0.748,0.079-1.07,0.241c-0.319,0.156-0.62,0.403-0.903,0.738v-0.153
								c0-0.261-0.074-0.466-0.221-0.615c-0.15-0.145-0.335-0.222-0.557-0.222c-0.227,0-0.413,0.078-0.556,0.239
								c-0.14,0.157-0.209,0.389-0.209,0.695v4.637c0,0.336,0.078,0.591,0.235,0.765c0.156,0.171,0.357,0.258,0.604,0.258
								c0.248,0,0.447-0.087,0.603-0.258c0.15-0.173,0.226-0.428,0.226-0.765v-2.189c0-0.684,0.087-1.207,0.254-1.567
								c0.169-0.369,0.516-0.551,1.048-0.551c0.264,0,0.459,0.073,0.582,0.22c0.122,0.142,0.198,0.331,0.227,0.552
								c0.027,0.226,0.04,0.544,0.04,0.953v2.582c0,0.342,0.078,0.594,0.233,0.767c0.148,0.17,0.349,0.255,0.594,0.255
								c0.254,0,0.455-0.085,0.611-0.255c0.156-0.173,0.231-0.425,0.231-0.767v-2.154c0-0.694,0.062-1.178,0.178-1.452
								c0.109-0.21,0.259-0.384,0.45-0.508c0.192-0.126,0.395-0.192,0.609-0.192c0.264,0,0.463,0.073,0.596,0.215
								c0.129,0.142,0.21,0.318,0.239,0.529c0.029,0.209,0.043,0.487,0.043,0.836v2.726c0,0.336,0.079,0.591,0.235,0.765
								c0.157,0.171,0.356,0.258,0.603,0.258c0.253,0,0.458-0.085,0.612-0.255c0.153-0.173,0.23-0.425,0.23-0.767v-3.164
								c0-0.629-0.068-1.09-0.206-1.385C327.665,479.119,327.426,478.868,327.107,478.694z"/>
						</g>
					</g>
					<g id="XMLID_599_">
						<g id="XMLID_612_">
							<path id="XMLID_162_" style="fill:#A1A1A1;" d="M248.796,481.326c-0.001-0.003-0.001-0.006-0.001-0.011
								C248.795,481.319,248.795,481.322,248.796,481.326z"/>
						</g>
						<g id="XMLID_611_">
							<path id="XMLID_163_" style="fill:#A1A1A1;" d="M248.878,481.844c0.001,0,0.001,0,0.001,0
								c-0.031-0.148-0.055-0.294-0.074-0.439C248.824,481.551,248.849,481.698,248.878,481.844z"/>
						</g>
						<g id="XMLID_610_">
							<path id="XMLID_164_" style="fill:#A1A1A1;" d="M249.414,483.348c-0.004-0.006-0.007-0.013-0.011-0.021
								C249.408,483.334,249.411,483.341,249.414,483.348z"/>
						</g>
						<g id="XMLID_609_">
							<path id="XMLID_165_" style="fill:#A1A1A1;" d="M249.363,483.248c-0.014-0.027-0.027-0.056-0.041-0.084
								C249.336,483.193,249.349,483.22,249.363,483.248z"/>
						</g>
						<g id="XMLID_608_">
							<path id="XMLID_166_" style="fill:#A1A1A1;" d="M249.029,482.423c0.079,0.25,0.175,0.493,0.286,0.724
								c-0.113-0.236-0.206-0.479-0.283-0.724H249.029z"/>
						</g>
						<g id="XMLID_607_">
							<path id="XMLID_167_" style="fill:#A1A1A1;" d="M254.26,474.562l-0.076-0.259c0.299-0.063,0.524-0.329,0.524-0.646
								c0-0.364-0.296-0.658-0.661-0.658c-0.364,0-0.66,0.295-0.66,0.658c0,0.317,0.224,0.583,0.523,0.646l0.084,0.289
								c-1.021,0.14-1.834,0.539-1.834,0.539l0.144,0.441c0.618-0.206,1.154-0.331,1.64-0.383c0.476-0.051,0.834-0.073,1.127-0.073
								c0.313,0,0.544,0.025,0.809,0.07l0.075-0.477C255.954,474.708,255.222,474.483,254.26,474.562z"/>
						</g>
						<g id="XMLID_606_">
							<path id="XMLID_168_" style="fill:#A1A1A1;" d="M248.976,477.069c-0.017,0.024-0.497,0.465-0.876,1.28
								c-0.016-0.026-0.035-0.05-0.056-0.074c-0.113-0.124-0.272-0.187-0.474-0.184c-0.003,0-0.006,0-0.009,0
								c-0.125,0-0.211-0.042-0.267-0.092c0.056-0.071,0.089-0.16,0.089-0.258c0-0.23-0.187-0.418-0.418-0.418
								c-0.23,0-0.418,0.188-0.418,0.418c0,0.231,0.187,0.418,0.418,0.418c0.036,0,0.071-0.006,0.104-0.013
								c0.103,0.114,0.266,0.214,0.505,0.209c0.123-0.001,0.213,0.03,0.273,0.097c0.069,0.076,0.093,0.185,0.1,0.267
								c-0.001,0.001-0.001,0.003-0.002,0.003c-0.272,0.743-0.194,1.669-0.194,1.669l0.661,0.026
								c0.013-0.337,0.062-0.926,0.232-1.394c0.329-0.906,0.741-1.472,0.758-1.496l0.004-0.005c0.024-0.031,0.047-0.06,0.071-0.089
								l-0.196-0.141L248.976,477.069z"/>
						</g>
						<g id="XMLID_605_">
							<path id="XMLID_169_" style="fill:#A1A1A1;" d="M260.819,475.668c-0.23,0-0.418,0.187-0.418,0.418
								c0,0.036,0.006,0.07,0.015,0.103c-0.115,0.104-0.214,0.267-0.211,0.507c0.002,0.123-0.03,0.212-0.096,0.273
								c-0.053,0.047-0.12,0.072-0.185,0.088c-0.492-0.689-1.097-1.109-1.097-1.109l-0.474,0.508
								c0.358,0.326,0.724,0.734,1.08,1.244c0.246,0.352,0.499,0.806,0.71,1.259l0.64-0.304c0,0-0.292-0.722-0.704-1.37
								c0.071-0.025,0.143-0.064,0.207-0.12c0.125-0.113,0.187-0.273,0.183-0.473c-0.001-0.13,0.042-0.218,0.093-0.276
								c0.071,0.054,0.16,0.089,0.258,0.089c0.232,0,0.419-0.187,0.419-0.418C261.238,475.854,261.051,475.668,260.819,475.668z"/>
						</g>
						<g id="XMLID_604_">
							<path id="XMLID_170_" style="fill:#A1A1A1;" d="M259.158,481.419c-0.881,0.429-2.33,0.996-4.238,1.262
								c-0.749,0.104-1.475,0.142-2.143,0.142c-0.869,0-1.637-0.065-2.227-0.139c-0.673-0.085-1.198-0.189-1.52-0.261
								c0.077,0.245,0.171,0.488,0.283,0.724c0.002,0.006,0.005,0.013,0.008,0.017c0.013,0.027,0.027,0.056,0.041,0.084
								c0.013,0.027,0.027,0.054,0.041,0.079c0.004,0.007,0.007,0.015,0.011,0.021c0.189,0.357,0.417,0.684,0.675,0.968
								c0.9,0.984,1.817,1.14,1.826,1.141l0.014,0.002l0.013,0.005c0.008,0.003,0.821,0.265,2.057,0.265
								c1.216,0,2.409-0.245,3.546-0.729c0.842-0.431,1.639-1.085,2.034-1.669c0.305-0.452,0.526-0.933,0.656-1.434
								c0.07-0.266,0.125-0.692,0.092-1.141C260.081,480.923,259.689,481.161,259.158,481.419z"/>
						</g>
						<g id="XMLID_600_">
							<g id="XMLID_171_">
								<path id="XMLID_172_" style="fill:#A1A1A1;" d="M255.846,475.536c-0.265-0.043-0.477-0.068-0.777-0.068
									c-0.28,0-0.626,0.022-1.09,0.071c-0.464,0.048-0.982,0.17-1.583,0.372c-0.842,0.282-1.605,0.724-2.204,1.28l-0.02,0.019
									c-0.089,0.082-0.274,0.254-0.488,0.526c-0.026,0.037-0.408,0.578-0.71,1.408c-0.226,0.622-0.216,1.527-0.216,1.538v0.002
									c0,0.212,0.012,0.423,0.035,0.632c0,0.005,0,0.008,0.001,0.011c0.002,0.027,0.007,0.053,0.009,0.079
									c0.019,0.145,0.043,0.291,0.074,0.439c0.438,0.111,3.049,0.72,5.968,0.314c1.829-0.255,3.218-0.795,4.062-1.204
									c0.701-0.34,1.151-0.648,1.325-0.774c-0.173-0.643-0.651-1.65-1.089-2.279C257.892,476.109,256.54,475.65,255.846,475.536z
									 M252.202,480.795c-0.972,0-1.76-0.787-1.76-1.759c0-0.972,0.788-1.761,1.76-1.761c0.973,0,1.761,0.789,1.761,1.761
									C253.963,480.008,253.175,480.795,252.202,480.795z M257.353,479.498c-0.601,0-1.089-0.489-1.089-1.09
									c0-0.601,0.488-1.09,1.089-1.09c0.601,0,1.09,0.488,1.09,1.09C258.443,479.009,257.954,479.498,257.353,479.498z"/>
							</g>
						</g>
					</g>
				</g>
			</g>
		</g>
	</g>
</g>
</svg>
