<svg xmlns="http://www.w3.org/2000/svg" width="28" height="30.079" viewBox="0 0 28 30.079">
  <g id="razor-icon" transform="translate(-541 268.079) rotate(-90)">
    <path id="Path_2" data-name="Path 2" d="M32.673,26.118a4.413,4.413,0,0,0-2.779-.986L15.672,6.77a2.008,2.008,0,0,0-2.746-.382L9.558,8.87a.32.32,0,0,0-.131.223.264.264,0,0,0,.065.223L20.87,24.049a.358.358,0,0,0,.458.064,1.665,1.665,0,0,1,2.289.318L24.6,25.7a70.575,70.575,0,0,1-15.759-.509,4.3,4.3,0,0,0-3.433.955A3.853,3.853,0,0,0,4,29.109a4.085,4.085,0,0,0,3.5,3.946,75.849,75.849,0,0,0,11.868.955,69.731,69.731,0,0,0,11.28-.923,4.055,4.055,0,0,0,3.433-3.946v-.032A3.968,3.968,0,0,0,32.673,26.118ZM21.2,23.413,10.212,9.189l.523-.382L21.851,23.19A3.917,3.917,0,0,0,21.2,23.413Zm2.943.636a2.254,2.254,0,0,0-1.5-.859v-.032L11.258,8.425,13.351,6.9a1.327,1.327,0,0,1,1.831.255L29.11,25.195c-1.242.191-2.485.318-3.76.446Zm9.285,5.091a3.4,3.4,0,0,1-2.91,3.309A70.119,70.119,0,0,1,7.6,32.418a3.407,3.407,0,0,1-2.943-3.309A3.3,3.3,0,0,1,5.831,26.6a3.649,3.649,0,0,1,2.354-.827,3.258,3.258,0,0,1,.556.032,71.382,71.382,0,0,0,16.478.477h0q2.06-.191,4.12-.477a3.7,3.7,0,0,1,2.91.8,3.3,3.3,0,0,1,1.177,2.514Z" transform="translate(234 534.99)" fill="#e3e3e3"/>
    <path id="Path_3" data-name="Path 3" d="M78.452,71A2.452,2.452,0,1,0,80.9,73.452,2.47,2.47,0,0,0,78.452,71Zm0,4.25a1.8,1.8,0,1,1,1.8-1.8A1.814,1.814,0,0,1,78.452,75.25Z" transform="translate(185.54 490.48)" fill="#e3e3e3"/>
  </g>
</svg>
